<svg xmlns="http://www.w3.org/2000/svg" viewBox="0 0 1600 1100" fill="none">
  <rect width="1600" height="1100" fill="#F8F1E6"/>
  <rect x="76" y="76" width="1448" height="948" stroke="#171411" stroke-width="6"/>
  <path d="M76 204H1524" stroke="#171411" stroke-width="4"/>
  <path d="M76 532H1524" stroke="#171411" stroke-width="4"/>
  <path d="M508 204V1024" stroke="#171411" stroke-width="4"/>
  <path d="M1044 204V1024" stroke="#171411" stroke-width="4"/>
  <rect x="132" y="126" width="188" height="28" fill="#171411"/>
  <rect x="340" y="126" width="96" height="28" fill="#0F5667"/>
  <rect x="132" y="268" width="320" height="196" fill="#171411"/>
  <rect x="184" y="324" width="164" height="18" fill="#F8F1E6"/>
  <rect x="184" y="370" width="216" height="12" fill="#0F5667"/>
  <rect x="184" y="406" width="172" height="12" fill="#D8CDBA"/>
  <rect x="564" y="268" width="408" height="196" fill="#F8F1E6" stroke="#171411" stroke-width="4"/>
  <rect x="612" y="324" width="172" height="18" fill="#171411"/>
  <rect x="612" y="370" width="252" height="12" fill="#0F5667"/>
  <rect x="612" y="406" width="196" height="12" fill="#746452"/>
  <rect x="1100" y="268" width="324" height="196" fill="#0F5667"/>
  <rect x="1148" y="324" width="148" height="18" fill="#F8F1E6"/>
  <rect x="1148" y="370" width="212" height="12" fill="#D8CDBA"/>
  <rect x="132" y="596" width="320" height="336" fill="#F8F1E6" stroke="#171411" stroke-width="4"/>
  <rect x="564" y="596" width="408" height="336" fill="#171411"/>
  <rect x="1100" y="596" width="324" height="336" fill="#F8F1E6" stroke="#171411" stroke-width="4"/>
  <path d="M184 672H400" stroke="#171411" stroke-width="4"/>
  <path d="M184 736H400" stroke="#0F5667" stroke-width="4"/>
  <path d="M184 800H344" stroke="#746452" stroke-width="4"/>
  <path d="M616 672H920" stroke="#F8F1E6" stroke-width="4"/>
  <path d="M616 736H920" stroke="#0F5667" stroke-width="4"/>
  <path d="M616 800H856" stroke="#D8CDBA" stroke-width="4"/>
  <path d="M1148 672H1368" stroke="#171411" stroke-width="4"/>
  <path d="M1148 736H1368" stroke="#0F5667" stroke-width="4"/>
  <path d="M1148 800H1312" stroke="#746452" stroke-width="4"/>
</svg>
